<svg width="17" height="30" viewBox="0 0 17 30" fill="none" xmlns="http://www.w3.org/2000/svg">
<path d="M3 13C4.10457 13 5 13.8954 5 15C5 16.1046 4.10457 17 3 17L3 13ZM0.585786 16.4142C-0.195262 15.6332 -0.195262 14.3668 0.585786 13.5858L13.3137 0.857864C14.0948 0.0768156 15.3611 0.0768156 16.1421 0.857864C16.9232 1.63891 16.9232 2.90524 16.1421 3.68629L4.82843 15L16.1421 26.3137C16.9232 27.0948 16.9232 28.3611 16.1421 29.1421C15.3611 29.9232 14.0948 29.9232 13.3137 29.1421L0.585786 16.4142ZM3 17H2L2 13H3L3 17Z" fill="white"/>
</svg>
