<svg width="30" height="30" viewBox="0 0 30 30" fill="none" xmlns="http://www.w3.org/2000/svg">
<path fill-rule="evenodd" clip-rule="evenodd" d="M25.5064 4.35974C22.6998 1.5498 18.9672 0.00164795 14.9907 0C6.79669 0 0.127991 6.66852 0.124695 14.8647C0.123596 17.4847 0.808044 20.0424 2.10901 22.2967L0 30L7.88068 27.9327C10.0521 29.1172 12.4968 29.7415 14.9846 29.7422H14.9908C23.1839 29.7422 29.8533 23.0731 29.8564 14.8766C29.8581 10.9043 28.3132 7.16949 25.5064 4.35974ZM14.9907 27.2316H14.9855C12.7685 27.2307 10.5941 26.6349 8.69678 25.5093L8.24579 25.2415L3.56927 26.4683L4.8175 21.9087L4.52362 21.4413C3.28674 19.474 2.63361 17.2002 2.6347 14.8656C2.63727 8.05316 8.18024 2.51074 14.9956 2.51074C18.2959 2.51184 21.3983 3.79871 23.731 6.13422C26.0638 8.46973 27.3477 11.5741 27.3466 14.8757C27.3437 21.6887 21.8011 27.2316 14.9907 27.2316ZM21.7681 17.9777C21.3968 17.7916 19.5705 16.8933 19.2299 16.7692C18.8897 16.6452 18.6418 16.5835 18.3944 16.9552C18.1467 17.3269 17.4349 18.1637 17.2181 18.4114C17.0013 18.6594 16.7849 18.6905 16.4134 18.5045C16.0419 18.3186 14.8451 17.9262 13.4262 16.6608C12.3221 15.6758 11.5767 14.4595 11.3599 14.0878C11.1434 13.7157 11.358 13.5341 11.5228 13.3297C11.9249 12.8304 12.3276 12.3069 12.4514 12.0591C12.5753 11.8112 12.5132 11.5942 12.4202 11.4084C12.3276 11.2225 11.5847 9.39422 11.2753 8.65027C10.9735 7.92627 10.6675 8.02405 10.4394 8.01269C10.223 8.00189 9.97522 7.99969 9.72748 7.99969C9.47992 7.99969 9.07745 8.09253 8.73688 8.4646C8.39648 8.83649 7.43701 9.73498 7.43701 11.5633C7.43701 13.3916 8.768 15.1578 8.95367 15.4058C9.13934 15.6537 11.573 19.4055 15.299 21.0143C16.1852 21.3973 16.877 21.6257 17.4166 21.7969C18.3065 22.0796 19.116 22.0397 19.7562 21.9441C20.4699 21.8373 21.9536 21.0454 22.2634 20.1779C22.5729 19.3101 22.5729 18.5665 22.4799 18.4114C22.3872 18.2565 22.1395 18.1637 21.7681 17.9777Z" fill="white"/>
</svg>
